<svg width="449" height="99" viewBox="0 0 449 99" fill="none" xmlns="http://www.w3.org/2000/svg">
  <g fill="#1F3B1C">
    <path d="m57.024 24.019 22.317 13.2c1.163 2.653 1.78 5.579 1.78 8.64 0 3.063-.617 5.988-1.78 8.642l-22.317 13.2c-11.227-1.02-19.989-10.41-19.989-21.841 0-11.431 8.763-20.753 19.99-21.841ZM0 83.215v-26.74c4.039-5.24 10.337-8.574 17.456-8.574 12.185 0 22.043 9.798 22.043 21.91 0 3.333-.753 6.531-2.122 9.39L16.155 91.72C9.585 91.38 3.765 88.114 0 83.215ZM16.224 0l21.221 12.52a21.49 21.49 0 0 1 2.122 9.39c0 12.11-9.857 21.909-22.042 21.909-7.188 0-13.486-3.403-17.525-8.574V8.573C3.765 3.606 9.584.408 16.224 0Z"/>
    <path d="M135.748 79.268c-16.429 0-28.478-10.682-29.162-25.447h15.402c.069 9.934 3.423 13.132 14.102 13.132 8.626 0 12.801-2.722 12.801-8.097v-2.518c0-3.878-1.916-5.375-8.762-6.532l-9.857-1.497c-13.075-2.245-21.427-10.138-21.427-20.344 0-12.316 11.98-22.522 26.287-22.522 14.992 0 26.424 10.002 27.793 23.815h-15.471c0-8.71-3.218-11.5-12.596-11.5-7.667 0-11.295 2.518-11.295 7.621v2.314c0 4.014 2.19 5.92 8.762 6.872l10.2 1.77c14.307 2.517 21.427 8.98 21.427 19.731-.069 12.724-12.938 23.202-28.204 23.202ZM194.209 79.268c-14.992 0-26.287-11.84-26.287-27.489 0-15.513 11.295-27.284 26.287-27.284 13.075 0 23.138 8.71 25.465 22.045h-14.991c-.48-7.688-3.149-10.138-10.748-10.138-7.462 0-10.679 3.334-10.679 11.023v8.913c0 7.825 3.354 11.227 10.679 11.227 7.53 0 10.268-2.517 10.748-10.274h14.991c-2.327 13.336-12.527 21.977-25.465 21.977ZM249.384 79.268c-15.471 0-27.109-11.84-27.109-27.489 0-15.581 11.569-27.284 27.109-27.284 15.608 0 27.177 11.703 27.177 27.284 0 15.718-11.706 27.49-27.177 27.49Zm0-11.771c8.146 0 11.911-3.47 11.911-11.09v-9.05c0-7.62-3.697-11.023-11.911-11.023-7.941 0-11.775 3.47-11.775 11.023v8.981c0 7.689 3.834 11.159 11.775 11.159ZM310.515 24.495c13.76 0 24.37 11.975 24.37 27.488 0 15.242-11.09 27.285-24.781 27.285-5.613 0-10.542-2.11-14.101-5.783V99h-14.308V25.448h13.349v5.987c3.628-4.082 9.789-6.94 15.471-6.94Zm8.968 31.98v-8.982c0-7.689-3.628-11.09-11.706-11.09s-11.774 3.401-11.774 11.09v8.981c0 7.485 3.696 11.023 11.774 11.023s11.706-3.47 11.706-11.023ZM390.198 55.59h-36.829v2.79c0 7.008 3.354 9.797 11.158 9.797 7.667 0 10.542-1.769 11.09-7.008h14.376c-2.944 10.138-13.212 18.099-25.26 18.099-14.787 0-26.493-10.887-26.493-26.944 0-14.901 11.09-27.897 26.698-27.897 14.102 0 25.26 11.975 25.26 26.4v4.763Zm-25.465-20.48c-7.941 0-11.364 2.925-11.364 9.73v1.292h21.769v-1.02c-.069-7.213-2.875-10.003-10.405-10.003ZM435.926 40.757c7.941 2.994 13.075 9.117 13.075 16.602 0 11.839-11.5 21.91-26.903 21.91-15.882 0-27.108-9.323-28.203-22.523h14.307c0 7.009 3.628 10.139 13.212 10.139 8.557 0 12.595-2.314 12.595-7.417v-5.58c0-4.422-4.312-6.735-13.006-6.735h-10.748V35.382h9.79c8.077 0 11.363-1.77 11.363-5.988v-5.375c0-4.287-3.354-6.192-10.474-6.192-8.146 0-11.158 2.79-11.158 9.117h-14.307c1.369-11.77 13.075-21.5 26.218-21.5 14.718 0 24.644 9.321 24.644 20.344.069 6.396-4.107 11.77-10.405 14.969Z"/>
  </g>
</svg>
